ISO-10303-21;
HEADER;
/* Generated by software containing ST-Developer
 * from STEP Tools, Inc. (www.steptools.com) 
 */

FILE_DESCRIPTION(
/* description */ (''),
/* implementation_level */ '2;1');

FILE_NAME(
/* name */ 'Verbinder_006.stp',
/* time_stamp */ '2025-04-30T09:49:45+02:00',
/* author */ ('clehmann'),
/* organization */ (''),
/* preprocessor_version */ 'ST-DEVELOPER v20',
/* originating_system */ 'Autodesk Inventor 2025',
/* authorisation */ '');

FILE_SCHEMA (('AUTOMOTIVE_DESIGN { 1 0 10303 214 3 1 1 }'));
ENDSEC;

DATA;
#10=MECHANICAL_DESIGN_GEOMETRIC_PRESENTATION_REPRESENTATION('',(#13),#454);
#11=SHAPE_REPRESENTATION_RELATIONSHIP('SRR','None',#461,#12);
#12=ADVANCED_BREP_SHAPE_REPRESENTATION('',(#14),#453);
#13=STYLED_ITEM('',(#470),#14);
#14=MANIFOLD_SOLID_BREP('Volumenk\X\F6rper1',#233);
#15=CONICAL_SURFACE('',#279,17.7,0.785398163397448);
#16=CONICAL_SURFACE('',#295,5.,0.785398163397448);
#17=FACE_BOUND('',#59,.T.);
#18=FACE_BOUND('',#63,.T.);
#19=FACE_BOUND('',#65,.T.);
#20=FACE_BOUND('',#70,.T.);
#21=PLANE('',#263);
#22=PLANE('',#272);
#23=PLANE('',#274);
#24=PLANE('',#286);
#25=LINE('',#395,#31);
#26=LINE('',#410,#32);
#27=LINE('',#424,#33);
#28=LINE('',#440,#34);
#29=LINE('',#448,#35);
#30=LINE('',#450,#36);
#31=VECTOR('',#310,13.25);
#32=VECTOR('',#329,15.1);
#33=VECTOR('',#348,17.7);
#34=VECTOR('',#369,3.5);
#35=VECTOR('',#380,14.95);
#36=VECTOR('',#383,5.);
#37=CYLINDRICAL_SURFACE('',#261,13.25);
#38=CYLINDRICAL_SURFACE('',#270,15.1);
#39=CYLINDRICAL_SURFACE('',#288,3.5);
#40=CYLINDRICAL_SURFACE('',#294,14.95);
#41=FACE_OUTER_BOUND('',#56,.T.);
#42=FACE_OUTER_BOUND('',#57,.T.);
#43=FACE_OUTER_BOUND('',#58,.T.);
#44=FACE_OUTER_BOUND('',#60,.T.);
#45=FACE_OUTER_BOUND('',#61,.T.);
#46=FACE_OUTER_BOUND('',#62,.T.);
#47=FACE_OUTER_BOUND('',#64,.T.);
#48=FACE_OUTER_BOUND('',#66,.T.);
#49=FACE_OUTER_BOUND('',#67,.T.);
#50=FACE_OUTER_BOUND('',#68,.T.);
#51=FACE_OUTER_BOUND('',#69,.T.);
#52=FACE_OUTER_BOUND('',#71,.T.);
#53=FACE_OUTER_BOUND('',#72,.T.);
#54=FACE_OUTER_BOUND('',#73,.T.);
#55=FACE_OUTER_BOUND('',#74,.T.);
#56=EDGE_LOOP('',(#151,#152,#153,#154,#155));
#57=EDGE_LOOP('',(#156,#157,#158,#159,#160));
#58=EDGE_LOOP('',(#161));
#59=EDGE_LOOP('',(#162));
#60=EDGE_LOOP('',(#163,#164,#165,#166,#167));
#61=EDGE_LOOP('',(#168,#169,#170,#171,#172));
#62=EDGE_LOOP('',(#173));
#63=EDGE_LOOP('',(#174));
#64=EDGE_LOOP('',(#175));
#65=EDGE_LOOP('',(#176));
#66=EDGE_LOOP('',(#177,#178,#179,#180,#181));
#67=EDGE_LOOP('',(#182,#183,#184,#185,#186));
#68=EDGE_LOOP('',(#187,#188,#189,#190,#191));
#69=EDGE_LOOP('',(#192));
#70=EDGE_LOOP('',(#193));
#71=EDGE_LOOP('',(#194,#195,#196,#197,#198));
#72=EDGE_LOOP('',(#199,#200,#201,#202,#203));
#73=EDGE_LOOP('',(#204,#205,#206,#207,#208));
#74=EDGE_LOOP('',(#209,#210,#211,#212));
#75=CIRCLE('',#257,13.);
#76=CIRCLE('',#258,0.25);
#77=CIRCLE('',#259,13.25);
#78=CIRCLE('',#260,13.25);
#79=CIRCLE('',#262,13.25);
#80=CIRCLE('',#264,6.5);
#81=CIRCLE('',#266,15.35);
#82=CIRCLE('',#267,0.25);
#83=CIRCLE('',#268,15.1);
#84=CIRCLE('',#269,15.1);
#85=CIRCLE('',#271,15.1);
#86=CIRCLE('',#273,18.0357864376269);
#87=CIRCLE('',#276,1.);
#88=CIRCLE('',#277,18.7428932188134);
#89=CIRCLE('',#278,18.7428932188134);
#90=CIRCLE('',#280,14.95);
#91=CIRCLE('',#282,4.);
#92=CIRCLE('',#283,0.5);
#93=CIRCLE('',#284,3.5);
#94=CIRCLE('',#285,3.5);
#95=CIRCLE('',#287,14.45);
#96=CIRCLE('',#289,3.5);
#97=CIRCLE('',#291,14.95);
#98=CIRCLE('',#292,14.95);
#99=CIRCLE('',#293,0.5);
#100=VERTEX_POINT('',#386);
#101=VERTEX_POINT('',#388);
#102=VERTEX_POINT('',#390);
#103=VERTEX_POINT('',#394);
#104=VERTEX_POINT('',#398);
#105=VERTEX_POINT('',#401);
#106=VERTEX_POINT('',#403);
#107=VERTEX_POINT('',#405);
#108=VERTEX_POINT('',#409);
#109=VERTEX_POINT('',#413);
#110=VERTEX_POINT('',#417);
#111=VERTEX_POINT('',#419);
#112=VERTEX_POINT('',#423);
#113=VERTEX_POINT('',#427);
#114=VERTEX_POINT('',#429);
#115=VERTEX_POINT('',#431);
#116=VERTEX_POINT('',#435);
#117=VERTEX_POINT('',#438);
#118=VERTEX_POINT('',#442);
#119=VERTEX_POINT('',#443);
#120=EDGE_CURVE('',#100,#100,#75,.T.);
#121=EDGE_CURVE('',#100,#101,#76,.T.);
#122=EDGE_CURVE('',#101,#102,#77,.T.);
#123=EDGE_CURVE('',#102,#101,#78,.T.);
#124=EDGE_CURVE('',#102,#103,#25,.T.);
#125=EDGE_CURVE('',#103,#103,#79,.T.);
#126=EDGE_CURVE('',#104,#104,#80,.T.);
#127=EDGE_CURVE('',#105,#105,#81,.T.);
#128=EDGE_CURVE('',#105,#106,#82,.T.);
#129=EDGE_CURVE('',#106,#107,#83,.T.);
#130=EDGE_CURVE('',#107,#106,#84,.T.);
#131=EDGE_CURVE('',#107,#108,#26,.T.);
#132=EDGE_CURVE('',#108,#108,#85,.T.);
#133=EDGE_CURVE('',#109,#109,#86,.T.);
#134=EDGE_CURVE('',#109,#110,#87,.T.);
#135=EDGE_CURVE('',#110,#111,#88,.T.);
#136=EDGE_CURVE('',#111,#110,#89,.T.);
#137=EDGE_CURVE('',#111,#112,#27,.T.);
#138=EDGE_CURVE('',#112,#112,#90,.T.);
#139=EDGE_CURVE('',#113,#113,#91,.T.);
#140=EDGE_CURVE('',#113,#114,#92,.T.);
#141=EDGE_CURVE('',#114,#115,#93,.T.);
#142=EDGE_CURVE('',#115,#114,#94,.T.);
#143=EDGE_CURVE('',#116,#116,#95,.T.);
#144=EDGE_CURVE('',#117,#117,#96,.T.);
#145=EDGE_CURVE('',#117,#115,#28,.T.);
#146=EDGE_CURVE('',#118,#119,#97,.T.);
#147=EDGE_CURVE('',#119,#118,#98,.T.);
#148=EDGE_CURVE('',#118,#116,#99,.T.);
#149=EDGE_CURVE('',#112,#119,#29,.T.);
#150=EDGE_CURVE('',#104,#117,#30,.T.);
#151=ORIENTED_EDGE('',*,*,#120,.T.);
#152=ORIENTED_EDGE('',*,*,#121,.T.);
#153=ORIENTED_EDGE('',*,*,#122,.T.);
#154=ORIENTED_EDGE('',*,*,#123,.T.);
#155=ORIENTED_EDGE('',*,*,#121,.F.);
#156=ORIENTED_EDGE('',*,*,#123,.F.);
#157=ORIENTED_EDGE('',*,*,#124,.T.);
#158=ORIENTED_EDGE('',*,*,#125,.T.);
#159=ORIENTED_EDGE('',*,*,#124,.F.);
#160=ORIENTED_EDGE('',*,*,#122,.F.);
#161=ORIENTED_EDGE('',*,*,#120,.F.);
#162=ORIENTED_EDGE('',*,*,#126,.F.);
#163=ORIENTED_EDGE('',*,*,#127,.T.);
#164=ORIENTED_EDGE('',*,*,#128,.T.);
#165=ORIENTED_EDGE('',*,*,#129,.T.);
#166=ORIENTED_EDGE('',*,*,#130,.T.);
#167=ORIENTED_EDGE('',*,*,#128,.F.);
#168=ORIENTED_EDGE('',*,*,#130,.F.);
#169=ORIENTED_EDGE('',*,*,#131,.T.);
#170=ORIENTED_EDGE('',*,*,#132,.T.);
#171=ORIENTED_EDGE('',*,*,#131,.F.);
#172=ORIENTED_EDGE('',*,*,#129,.F.);
#173=ORIENTED_EDGE('',*,*,#133,.F.);
#174=ORIENTED_EDGE('',*,*,#127,.F.);
#175=ORIENTED_EDGE('',*,*,#132,.F.);
#176=ORIENTED_EDGE('',*,*,#125,.F.);
#177=ORIENTED_EDGE('',*,*,#133,.T.);
#178=ORIENTED_EDGE('',*,*,#134,.T.);
#179=ORIENTED_EDGE('',*,*,#135,.T.);
#180=ORIENTED_EDGE('',*,*,#136,.T.);
#181=ORIENTED_EDGE('',*,*,#134,.F.);
#182=ORIENTED_EDGE('',*,*,#136,.F.);
#183=ORIENTED_EDGE('',*,*,#137,.T.);
#184=ORIENTED_EDGE('',*,*,#138,.T.);
#185=ORIENTED_EDGE('',*,*,#137,.F.);
#186=ORIENTED_EDGE('',*,*,#135,.F.);
#187=ORIENTED_EDGE('',*,*,#139,.T.);
#188=ORIENTED_EDGE('',*,*,#140,.T.);
#189=ORIENTED_EDGE('',*,*,#141,.T.);
#190=ORIENTED_EDGE('',*,*,#142,.T.);
#191=ORIENTED_EDGE('',*,*,#140,.F.);
#192=ORIENTED_EDGE('',*,*,#143,.F.);
#193=ORIENTED_EDGE('',*,*,#139,.F.);
#194=ORIENTED_EDGE('',*,*,#144,.T.);
#195=ORIENTED_EDGE('',*,*,#145,.T.);
#196=ORIENTED_EDGE('',*,*,#141,.F.);
#197=ORIENTED_EDGE('',*,*,#142,.F.);
#198=ORIENTED_EDGE('',*,*,#145,.F.);
#199=ORIENTED_EDGE('',*,*,#146,.T.);
#200=ORIENTED_EDGE('',*,*,#147,.T.);
#201=ORIENTED_EDGE('',*,*,#148,.T.);
#202=ORIENTED_EDGE('',*,*,#143,.T.);
#203=ORIENTED_EDGE('',*,*,#148,.F.);
#204=ORIENTED_EDGE('',*,*,#138,.F.);
#205=ORIENTED_EDGE('',*,*,#149,.T.);
#206=ORIENTED_EDGE('',*,*,#146,.F.);
#207=ORIENTED_EDGE('',*,*,#147,.F.);
#208=ORIENTED_EDGE('',*,*,#149,.F.);
#209=ORIENTED_EDGE('',*,*,#126,.T.);
#210=ORIENTED_EDGE('',*,*,#150,.T.);
#211=ORIENTED_EDGE('',*,*,#144,.F.);
#212=ORIENTED_EDGE('',*,*,#150,.F.);
#213=TOROIDAL_SURFACE('',#256,13.,0.25);
#214=TOROIDAL_SURFACE('',#265,15.35,0.25);
#215=TOROIDAL_SURFACE('',#275,18.0357864376269,1.);
#216=TOROIDAL_SURFACE('',#281,4.,0.5);
#217=TOROIDAL_SURFACE('',#290,14.45,0.5);
#218=ADVANCED_FACE('',(#41),#213,.T.);
#219=ADVANCED_FACE('',(#42),#37,.T.);
#220=ADVANCED_FACE('',(#43,#17),#21,.T.);
#221=ADVANCED_FACE('',(#44),#214,.T.);
#222=ADVANCED_FACE('',(#45),#38,.F.);
#223=ADVANCED_FACE('',(#46,#18),#22,.T.);
#224=ADVANCED_FACE('',(#47,#19),#23,.T.);
#225=ADVANCED_FACE('',(#48),#215,.T.);
#226=ADVANCED_FACE('',(#49),#15,.T.);
#227=ADVANCED_FACE('',(#50),#216,.T.);
#228=ADVANCED_FACE('',(#51,#20),#24,.T.);
#229=ADVANCED_FACE('',(#52),#39,.F.);
#230=ADVANCED_FACE('',(#53),#217,.T.);
#231=ADVANCED_FACE('',(#54),#40,.T.);
#232=ADVANCED_FACE('',(#55),#16,.F.);
#233=CLOSED_SHELL('',(#218,#219,#220,#221,#222,#223,#224,#225,#226,#227,
#228,#229,#230,#231,#232));
#234=DERIVED_UNIT_ELEMENT(#237,1.);
#235=DERIVED_UNIT_ELEMENT(#456,-3.);
#236=DIMENSIONAL_EXPONENTS(0.,1.,0.,0.,0.,0.,0.);
#237=(
CONVERSION_BASED_UNIT('gram',#239)
MASS_UNIT()
NAMED_UNIT(#236)
);
#238=(
MASS_UNIT()
NAMED_UNIT(*)
SI_UNIT(.KILO.,.GRAM.)
);
#239=MASS_MEASURE_WITH_UNIT(MASS_MEASURE(0.001),#238);
#240=DERIVED_UNIT((#234,#235));
#241=MEASURE_REPRESENTATION_ITEM('density measure',
POSITIVE_RATIO_MEASURE(1.),#240);
#242=PROPERTY_DEFINITION_REPRESENTATION(#247,#244);
#243=PROPERTY_DEFINITION_REPRESENTATION(#248,#245);
#244=REPRESENTATION('material name',(#246),#453);
#245=REPRESENTATION('density',(#241),#453);
#246=DESCRIPTIVE_REPRESENTATION_ITEM('Generisch','Generisch');
#247=PROPERTY_DEFINITION('material property','material name',#463);
#248=PROPERTY_DEFINITION('material property','density of part',#463);
#249=DATE_TIME_ROLE('creation_date');
#250=APPLIED_DATE_AND_TIME_ASSIGNMENT(#251,#249,(#463));
#251=DATE_AND_TIME(#252,#253);
#252=CALENDAR_DATE(2024,14,11);
#253=LOCAL_TIME(0,0,0.,#254);
#254=COORDINATED_UNIVERSAL_TIME_OFFSET(0,0,.BEHIND.);
#255=AXIS2_PLACEMENT_3D('',#384,#296,#297);
#256=AXIS2_PLACEMENT_3D('',#385,#298,#299);
#257=AXIS2_PLACEMENT_3D('',#387,#300,#301);
#258=AXIS2_PLACEMENT_3D('',#389,#302,#303);
#259=AXIS2_PLACEMENT_3D('',#391,#304,#305);
#260=AXIS2_PLACEMENT_3D('',#392,#306,#307);
#261=AXIS2_PLACEMENT_3D('',#393,#308,#309);
#262=AXIS2_PLACEMENT_3D('',#396,#311,#312);
#263=AXIS2_PLACEMENT_3D('',#397,#313,#314);
#264=AXIS2_PLACEMENT_3D('',#399,#315,#316);
#265=AXIS2_PLACEMENT_3D('',#400,#317,#318);
#266=AXIS2_PLACEMENT_3D('',#402,#319,#320);
#267=AXIS2_PLACEMENT_3D('',#404,#321,#322);
#268=AXIS2_PLACEMENT_3D('',#406,#323,#324);
#269=AXIS2_PLACEMENT_3D('',#407,#325,#326);
#270=AXIS2_PLACEMENT_3D('',#408,#327,#328);
#271=AXIS2_PLACEMENT_3D('',#411,#330,#331);
#272=AXIS2_PLACEMENT_3D('',#412,#332,#333);
#273=AXIS2_PLACEMENT_3D('',#414,#334,#335);
#274=AXIS2_PLACEMENT_3D('',#415,#336,#337);
#275=AXIS2_PLACEMENT_3D('',#416,#338,#339);
#276=AXIS2_PLACEMENT_3D('',#418,#340,#341);
#277=AXIS2_PLACEMENT_3D('',#420,#342,#343);
#278=AXIS2_PLACEMENT_3D('',#421,#344,#345);
#279=AXIS2_PLACEMENT_3D('',#422,#346,#347);
#280=AXIS2_PLACEMENT_3D('',#425,#349,#350);
#281=AXIS2_PLACEMENT_3D('',#426,#351,#352);
#282=AXIS2_PLACEMENT_3D('',#428,#353,#354);
#283=AXIS2_PLACEMENT_3D('',#430,#355,#356);
#284=AXIS2_PLACEMENT_3D('',#432,#357,#358);
#285=AXIS2_PLACEMENT_3D('',#433,#359,#360);
#286=AXIS2_PLACEMENT_3D('',#434,#361,#362);
#287=AXIS2_PLACEMENT_3D('',#436,#363,#364);
#288=AXIS2_PLACEMENT_3D('',#437,#365,#366);
#289=AXIS2_PLACEMENT_3D('',#439,#367,#368);
#290=AXIS2_PLACEMENT_3D('',#441,#370,#371);
#291=AXIS2_PLACEMENT_3D('',#444,#372,#373);
#292=AXIS2_PLACEMENT_3D('',#445,#374,#375);
#293=AXIS2_PLACEMENT_3D('',#446,#376,#377);
#294=AXIS2_PLACEMENT_3D('',#447,#378,#379);
#295=AXIS2_PLACEMENT_3D('',#449,#381,#382);
#296=DIRECTION('axis',(0.,0.,1.));
#297=DIRECTION('refdir',(1.,0.,0.));
#298=DIRECTION('center_axis',(0.,1.,0.));
#299=DIRECTION('ref_axis',(0.,0.,1.));
#300=DIRECTION('center_axis',(0.,-1.,0.));
#301=DIRECTION('ref_axis',(-1.,0.,0.));
#302=DIRECTION('center_axis',(-1.,0.,1.22464679914735E-16));
#303=DIRECTION('ref_axis',(-1.22464679914735E-16,0.,-1.));
#304=DIRECTION('center_axis',(0.,1.,0.));
#305=DIRECTION('ref_axis',(-1.,0.,0.));
#306=DIRECTION('center_axis',(0.,1.,0.));
#307=DIRECTION('ref_axis',(-1.,0.,0.));
#308=DIRECTION('center_axis',(0.,-1.,0.));
#309=DIRECTION('ref_axis',(-1.,0.,0.));
#310=DIRECTION('',(0.,-1.,0.));
#311=DIRECTION('center_axis',(0.,1.,0.));
#312=DIRECTION('ref_axis',(-1.,0.,0.));
#313=DIRECTION('center_axis',(0.,1.,0.));
#314=DIRECTION('ref_axis',(0.,0.,1.));
#315=DIRECTION('center_axis',(0.,1.,0.));
#316=DIRECTION('ref_axis',(1.,0.,0.));
#317=DIRECTION('center_axis',(0.,-1.,0.));
#318=DIRECTION('ref_axis',(0.,0.,-1.));
#319=DIRECTION('center_axis',(0.,1.,0.));
#320=DIRECTION('ref_axis',(-1.,0.,1.22464679914735E-16));
#321=DIRECTION('center_axis',(-1.,0.,-1.22464679914735E-16));
#322=DIRECTION('ref_axis',(-1.22464679914735E-16,0.,1.));
#323=DIRECTION('center_axis',(0.,-1.,0.));
#324=DIRECTION('ref_axis',(-1.,0.,1.22464679914735E-16));
#325=DIRECTION('center_axis',(0.,-1.,0.));
#326=DIRECTION('ref_axis',(-1.,0.,1.22464679914735E-16));
#327=DIRECTION('center_axis',(0.,-1.,0.));
#328=DIRECTION('ref_axis',(1.,0.,0.));
#329=DIRECTION('',(0.,-1.,0.));
#330=DIRECTION('center_axis',(0.,-1.,0.));
#331=DIRECTION('ref_axis',(1.,0.,0.));
#332=DIRECTION('center_axis',(0.,1.,0.));
#333=DIRECTION('ref_axis',(0.,0.,1.));
#334=DIRECTION('center_axis',(0.,-1.,0.));
#335=DIRECTION('ref_axis',(-1.,0.,-1.22464679914735E-16));
#336=DIRECTION('center_axis',(0.,1.,0.));
#337=DIRECTION('ref_axis',(0.,0.,1.));
#338=DIRECTION('center_axis',(0.,1.,0.));
#339=DIRECTION('ref_axis',(0.,0.,1.));
#340=DIRECTION('center_axis',(-1.,0.,1.22464679914735E-16));
#341=DIRECTION('ref_axis',(-1.22464679914735E-16,0.,-1.));
#342=DIRECTION('center_axis',(0.,1.,0.));
#343=DIRECTION('ref_axis',(-1.,0.,0.));
#344=DIRECTION('center_axis',(0.,1.,0.));
#345=DIRECTION('ref_axis',(-1.,0.,0.));
#346=DIRECTION('center_axis',(0.,1.,0.));
#347=DIRECTION('ref_axis',(1.,0.,0.));
#348=DIRECTION('',(0.707106781186547,-0.707106781186548,-8.65956056235493E-17));
#349=DIRECTION('center_axis',(0.,1.,0.));
#350=DIRECTION('ref_axis',(1.,0.,0.));
#351=DIRECTION('center_axis',(0.,1.,0.));
#352=DIRECTION('ref_axis',(0.,0.,1.));
#353=DIRECTION('center_axis',(0.,-1.,0.));
#354=DIRECTION('ref_axis',(-1.,0.,-1.22464679914735E-16));
#355=DIRECTION('center_axis',(-1.,0.,1.22464679914735E-16));
#356=DIRECTION('ref_axis',(-1.22464679914735E-16,0.,-1.));
#357=DIRECTION('center_axis',(0.,1.,0.));
#358=DIRECTION('ref_axis',(-1.,0.,-1.22464679914735E-16));
#359=DIRECTION('center_axis',(0.,1.,0.));
#360=DIRECTION('ref_axis',(-1.,0.,-1.22464679914735E-16));
#361=DIRECTION('center_axis',(0.,-1.,0.));
#362=DIRECTION('ref_axis',(0.,0.,-1.));
#363=DIRECTION('center_axis',(0.,1.,0.));
#364=DIRECTION('ref_axis',(-1.,0.,-1.22464679914735E-16));
#365=DIRECTION('center_axis',(0.,1.,0.));
#366=DIRECTION('ref_axis',(1.,0.,0.));
#367=DIRECTION('center_axis',(0.,1.,0.));
#368=DIRECTION('ref_axis',(1.,0.,0.));
#369=DIRECTION('',(0.,-1.,0.));
#370=DIRECTION('center_axis',(0.,1.,0.));
#371=DIRECTION('ref_axis',(0.,0.,1.));
#372=DIRECTION('center_axis',(0.,-1.,0.));
#373=DIRECTION('ref_axis',(-1.,0.,-1.22464679914735E-16));
#374=DIRECTION('center_axis',(0.,-1.,0.));
#375=DIRECTION('ref_axis',(-1.,0.,-1.22464679914735E-16));
#376=DIRECTION('center_axis',(-1.,0.,1.22464679914735E-16));
#377=DIRECTION('ref_axis',(-1.22464679914735E-16,0.,-1.));
#378=DIRECTION('center_axis',(0.,1.,0.));
#379=DIRECTION('ref_axis',(1.,0.,0.));
#380=DIRECTION('',(0.,-1.,0.));
#381=DIRECTION('center_axis',(0.,1.,0.));
#382=DIRECTION('ref_axis',(1.,0.,0.));
#383=DIRECTION('',(0.707106781186547,-0.707106781186548,-8.65956056235493E-17));
#384=CARTESIAN_POINT('',(0.,0.,0.));
#385=CARTESIAN_POINT('Origin',(0.,8.25,0.));
#386=CARTESIAN_POINT('',(-1.59204083889156E-15,8.5,-13.));
#387=CARTESIAN_POINT('Origin',(0.,8.5,0.));
#388=CARTESIAN_POINT('',(-1.62265700887024E-15,8.25,-13.25));
#389=CARTESIAN_POINT('Origin',(-1.59204083889156E-15,8.25,-13.));
#390=CARTESIAN_POINT('',(13.25,8.25,-1.62265700887024E-15));
#391=CARTESIAN_POINT('Origin',(0.,8.25,0.));
#392=CARTESIAN_POINT('Origin',(0.,8.25,0.));
#393=CARTESIAN_POINT('Origin',(0.,8.5,0.));
#394=CARTESIAN_POINT('',(13.25,7.,-1.62265700887024E-15));
#395=CARTESIAN_POINT('',(13.25,8.5,1.62265700887024E-15));
#396=CARTESIAN_POINT('Origin',(0.,7.,0.));
#397=CARTESIAN_POINT('Origin',(6.5,8.5,0.));
#398=CARTESIAN_POINT('',(-6.5,8.5,7.9602041944578E-16));
#399=CARTESIAN_POINT('Origin',(0.,8.5,0.));
#400=CARTESIAN_POINT('Origin',(0.,8.25,0.));
#401=CARTESIAN_POINT('',(-1.87983283669119E-15,8.5,15.35));
#402=CARTESIAN_POINT('Origin',(0.,8.5,0.));
#403=CARTESIAN_POINT('',(-1.8492166667125E-15,8.25,15.1));
#404=CARTESIAN_POINT('Origin',(-1.87983283669119E-15,8.25,15.35));
#405=CARTESIAN_POINT('',(-15.1,8.25,-1.8492166667125E-15));
#406=CARTESIAN_POINT('Origin',(0.,8.25,0.));
#407=CARTESIAN_POINT('Origin',(0.,8.25,0.));
#408=CARTESIAN_POINT('Origin',(0.,8.5,0.));
#409=CARTESIAN_POINT('',(-15.1,7.,-1.8492166667125E-15));
#410=CARTESIAN_POINT('',(-15.1,8.5,-1.8492166667125E-15));
#411=CARTESIAN_POINT('Origin',(0.,7.,0.));
#412=CARTESIAN_POINT('Origin',(6.5,8.5,0.));
#413=CARTESIAN_POINT('',(-2.2087468130945E-15,8.5,-18.0357864376269));
#414=CARTESIAN_POINT('Origin',(0.,8.5,0.));
#415=CARTESIAN_POINT('Origin',(0.,7.,0.));
#416=CARTESIAN_POINT('Origin',(0.,7.5,0.));
#417=CARTESIAN_POINT('',(-2.29534241871805E-15,6.79289321881346,-18.7428932188134));
#418=CARTESIAN_POINT('Origin',(-2.2087468130945E-15,7.5,-18.0357864376269));
#419=CARTESIAN_POINT('',(-18.7428932188134,6.79289321881346,2.29534241871805E-15));
#420=CARTESIAN_POINT('Origin',(0.,6.79289321881345,2.29534241871805E-15));
#421=CARTESIAN_POINT('Origin',(0.,6.79289321881345,2.29534241871805E-15));
#422=CARTESIAN_POINT('Origin',(0.,5.75,0.));
#423=CARTESIAN_POINT('',(-14.95,3.,1.83084696472529E-15));
#424=CARTESIAN_POINT('',(-17.7,5.75,2.16762483449081E-15));
#425=CARTESIAN_POINT('Origin',(0.,3.,0.));
#426=CARTESIAN_POINT('Origin',(0.,0.500000000000002,0.));
#427=CARTESIAN_POINT('',(-4.89858719658941E-16,1.80411241501588E-15,-4.));
#428=CARTESIAN_POINT('Origin',(0.,1.80411241501588E-15,0.));
#429=CARTESIAN_POINT('',(-4.28626379701574E-16,0.500000000000002,-3.5));
#430=CARTESIAN_POINT('Origin',(-4.89858719658941E-16,0.500000000000002,
-4.));
#431=CARTESIAN_POINT('',(-3.5,0.500000000000002,4.28626379701574E-16));
#432=CARTESIAN_POINT('Origin',(0.,0.500000000000002,0.));
#433=CARTESIAN_POINT('Origin',(0.,0.500000000000002,0.));
#434=CARTESIAN_POINT('Origin',(14.95,1.83084696472529E-15,0.));
#435=CARTESIAN_POINT('',(-1.76961462476793E-15,1.80411241501588E-15,-14.45));
#436=CARTESIAN_POINT('Origin',(0.,1.80411241501588E-15,0.));
#437=CARTESIAN_POINT('Origin',(0.,2.75,0.));
#438=CARTESIAN_POINT('',(-3.5,5.5,4.28626379701574E-16));
#439=CARTESIAN_POINT('Origin',(0.,5.5,0.));
#440=CARTESIAN_POINT('',(-3.5,2.75,4.28626379701574E-16));
#441=CARTESIAN_POINT('Origin',(0.,0.500000000000002,0.));
#442=CARTESIAN_POINT('',(-1.83084696472529E-15,0.500000000000002,-14.95));
#443=CARTESIAN_POINT('',(-14.95,0.500000000000002,1.83084696472529E-15));
#444=CARTESIAN_POINT('Origin',(0.,0.500000000000002,0.));
#445=CARTESIAN_POINT('Origin',(0.,0.500000000000002,0.));
#446=CARTESIAN_POINT('Origin',(-1.76961462476793E-15,0.500000000000002,
-14.45));
#447=CARTESIAN_POINT('Origin',(0.,1.5,0.));
#448=CARTESIAN_POINT('',(-14.95,1.5,1.83084696472529E-15));
#449=CARTESIAN_POINT('Origin',(0.,7.,0.));
#450=CARTESIAN_POINT('',(-5.,7.,6.12323399573677E-16));
#451=UNCERTAINTY_MEASURE_WITH_UNIT(LENGTH_MEASURE(0.01),#455,
'DISTANCE_ACCURACY_VALUE',
'Maximum model space distance between geometric entities at asserted c
onnectivities');
#452=UNCERTAINTY_MEASURE_WITH_UNIT(LENGTH_MEASURE(0.01),#455,
'DISTANCE_ACCURACY_VALUE',
'Maximum model space distance between geometric entities at asserted c
onnectivities');
#453=(
GEOMETRIC_REPRESENTATION_CONTEXT(3)
GLOBAL_UNCERTAINTY_ASSIGNED_CONTEXT((#451))
GLOBAL_UNIT_ASSIGNED_CONTEXT((#455,#457,#458))
REPRESENTATION_CONTEXT('','3D')
);
#454=(
GEOMETRIC_REPRESENTATION_CONTEXT(3)
GLOBAL_UNCERTAINTY_ASSIGNED_CONTEXT((#452))
GLOBAL_UNIT_ASSIGNED_CONTEXT((#455,#457,#458))
REPRESENTATION_CONTEXT('','3D')
);
#455=(
LENGTH_UNIT()
NAMED_UNIT(*)
SI_UNIT(.MILLI.,.METRE.)
);
#456=(
LENGTH_UNIT()
NAMED_UNIT(*)
SI_UNIT(.CENTI.,.METRE.)
);
#457=(
NAMED_UNIT(*)
PLANE_ANGLE_UNIT()
SI_UNIT($,.RADIAN.)
);
#458=(
NAMED_UNIT(*)
SI_UNIT($,.STERADIAN.)
SOLID_ANGLE_UNIT()
);
#459=SHAPE_DEFINITION_REPRESENTATION(#460,#461);
#460=PRODUCT_DEFINITION_SHAPE('',$,#463);
#461=SHAPE_REPRESENTATION('',(#255),#453);
#462=PRODUCT_DEFINITION_CONTEXT('part definition',#467,'design');
#463=PRODUCT_DEFINITION('Verbinder_006_Kabel','Verbinder_006',#464,#462);
#464=PRODUCT_DEFINITION_FORMATION('',$,#469);
#465=PRODUCT_RELATED_PRODUCT_CATEGORY('Verbinder_006','Verbinder_006',(#469));
#466=APPLICATION_PROTOCOL_DEFINITION('international standard',
'automotive_design',2009,#467);
#467=APPLICATION_CONTEXT(
'Core Data for Automotive Mechanical Design Process');
#468=PRODUCT_CONTEXT('part definition',#467,'mechanical');
#469=PRODUCT('Verbinder_006_Kabel','Verbinder_006',$,(#468));
#470=PRESENTATION_STYLE_ASSIGNMENT((#471));
#471=SURFACE_STYLE_USAGE(.BOTH.,#474);
#472=SURFACE_STYLE_RENDERING_WITH_PROPERTIES($,#478,(#473));
#473=SURFACE_STYLE_TRANSPARENT(0.);
#474=SURFACE_SIDE_STYLE('',(#475,#472));
#475=SURFACE_STYLE_FILL_AREA(#476);
#476=FILL_AREA_STYLE('',(#477));
#477=FILL_AREA_STYLE_COLOUR('',#478);
#478=COLOUR_RGB('',0.537254901960784,0.6,0.466666666666667);
ENDSEC;
END-ISO-10303-21;
