ISO-10303-21;
HEADER;
/* Generated by software containing ST-Developer
 * from STEP Tools, Inc. (www.steptools.com) 
 */

FILE_DESCRIPTION(
/* description */ (''),
/* implementation_level */ '2;1');

FILE_NAME(
/* name */ '250422_Abdeckplatte Druckknopf_Holz_Goba.stp',
/* time_stamp */ '2025-06-03T13:05:13+02:00',
/* author */ ('clehmann'),
/* organization */ (''),
/* preprocessor_version */ 'ST-DEVELOPER v20',
/* originating_system */ 'Autodesk Inventor 2025',
/* authorisation */ '');

FILE_SCHEMA (('AUTOMOTIVE_DESIGN { 1 0 10303 214 3 1 1 }'));
ENDSEC;

DATA;
#10=MECHANICAL_DESIGN_GEOMETRIC_PRESENTATION_REPRESENTATION('',(#13),#651);
#11=SHAPE_REPRESENTATION_RELATIONSHIP('SRR','None',#658,#12);
#12=ADVANCED_BREP_SHAPE_REPRESENTATION('',(#14),#650);
#13=STYLED_ITEM('',(#667),#14);
#14=MANIFOLD_SOLID_BREP('Volumenk\X\F6rper1',#374);
#15=FACE_BOUND('',#85,.T.);
#16=FACE_BOUND('',#86,.T.);
#17=FACE_BOUND('',#87,.T.);
#18=FACE_BOUND('',#89,.T.);
#19=FACE_BOUND('',#90,.T.);
#20=FACE_BOUND('',#91,.T.);
#21=CIRCLE('',#399,5.);
#22=CIRCLE('',#400,5.);
#23=CIRCLE('',#403,5.);
#24=CIRCLE('',#404,5.);
#25=CIRCLE('',#406,15.);
#26=CIRCLE('',#407,15.);
#27=CIRCLE('',#410,5.);
#28=CIRCLE('',#411,5.);
#29=CIRCLE('',#414,5.);
#30=CIRCLE('',#415,5.);
#31=CIRCLE('',#418,32.);
#32=CIRCLE('',#419,32.);
#33=CIRCLE('',#422,32.);
#34=CIRCLE('',#423,32.);
#35=CIRCLE('',#426,32.);
#36=CIRCLE('',#427,32.);
#37=CIRCLE('',#430,32.);
#38=CIRCLE('',#431,32.);
#39=CYLINDRICAL_SURFACE('',#398,5.);
#40=CYLINDRICAL_SURFACE('',#402,5.);
#41=CYLINDRICAL_SURFACE('',#405,15.);
#42=CYLINDRICAL_SURFACE('',#409,5.);
#43=CYLINDRICAL_SURFACE('',#413,5.);
#44=CYLINDRICAL_SURFACE('',#417,32.);
#45=CYLINDRICAL_SURFACE('',#421,32.);
#46=CYLINDRICAL_SURFACE('',#425,32.);
#47=CYLINDRICAL_SURFACE('',#429,32.);
#48=FACE_OUTER_BOUND('',#67,.T.);
#49=FACE_OUTER_BOUND('',#68,.T.);
#50=FACE_OUTER_BOUND('',#69,.T.);
#51=FACE_OUTER_BOUND('',#70,.T.);
#52=FACE_OUTER_BOUND('',#71,.T.);
#53=FACE_OUTER_BOUND('',#72,.T.);
#54=FACE_OUTER_BOUND('',#73,.T.);
#55=FACE_OUTER_BOUND('',#74,.T.);
#56=FACE_OUTER_BOUND('',#75,.T.);
#57=FACE_OUTER_BOUND('',#76,.T.);
#58=FACE_OUTER_BOUND('',#77,.T.);
#59=FACE_OUTER_BOUND('',#78,.T.);
#60=FACE_OUTER_BOUND('',#79,.T.);
#61=FACE_OUTER_BOUND('',#80,.T.);
#62=FACE_OUTER_BOUND('',#81,.T.);
#63=FACE_OUTER_BOUND('',#82,.T.);
#64=FACE_OUTER_BOUND('',#83,.T.);
#65=FACE_OUTER_BOUND('',#84,.T.);
#66=FACE_OUTER_BOUND('',#88,.T.);
#67=EDGE_LOOP('',(#243,#244,#245,#246));
#68=EDGE_LOOP('',(#247,#248,#249,#250));
#69=EDGE_LOOP('',(#251,#252,#253,#254));
#70=EDGE_LOOP('',(#255,#256,#257,#258));
#71=EDGE_LOOP('',(#259,#260,#261,#262));
#72=EDGE_LOOP('',(#263,#264,#265,#266));
#73=EDGE_LOOP('',(#267,#268,#269,#270));
#74=EDGE_LOOP('',(#271,#272,#273,#274));
#75=EDGE_LOOP('',(#275,#276,#277,#278));
#76=EDGE_LOOP('',(#279,#280,#281,#282));
#77=EDGE_LOOP('',(#283,#284,#285,#286));
#78=EDGE_LOOP('',(#287,#288,#289,#290));
#79=EDGE_LOOP('',(#291,#292,#293,#294));
#80=EDGE_LOOP('',(#295,#296,#297,#298));
#81=EDGE_LOOP('',(#299,#300,#301,#302));
#82=EDGE_LOOP('',(#303,#304,#305,#306));
#83=EDGE_LOOP('',(#307,#308,#309,#310));
#84=EDGE_LOOP('',(#311,#312,#313,#314,#315,#316,#317,#318));
#85=EDGE_LOOP('',(#319,#320,#321,#322));
#86=EDGE_LOOP('',(#323));
#87=EDGE_LOOP('',(#324,#325,#326,#327));
#88=EDGE_LOOP('',(#328,#329,#330,#331,#332,#333,#334,#335));
#89=EDGE_LOOP('',(#336,#337,#338,#339));
#90=EDGE_LOOP('',(#340));
#91=EDGE_LOOP('',(#341,#342,#343,#344));
#92=LINE('',#547,#125);
#93=LINE('',#549,#126);
#94=LINE('',#551,#127);
#95=LINE('',#552,#128);
#96=LINE('',#558,#129);
#97=LINE('',#561,#130);
#98=LINE('',#563,#131);
#99=LINE('',#564,#132);
#100=LINE('',#572,#133);
#101=LINE('',#577,#134);
#102=LINE('',#579,#135);
#103=LINE('',#581,#136);
#104=LINE('',#582,#137);
#105=LINE('',#588,#138);
#106=LINE('',#591,#139);
#107=LINE('',#593,#140);
#108=LINE('',#594,#141);
#109=LINE('',#601,#142);
#110=LINE('',#603,#143);
#111=LINE('',#605,#144);
#112=LINE('',#606,#145);
#113=LINE('',#612,#146);
#114=LINE('',#615,#147);
#115=LINE('',#617,#148);
#116=LINE('',#618,#149);
#117=LINE('',#624,#150);
#118=LINE('',#627,#151);
#119=LINE('',#629,#152);
#120=LINE('',#630,#153);
#121=LINE('',#636,#154);
#122=LINE('',#639,#155);
#123=LINE('',#641,#156);
#124=LINE('',#642,#157);
#125=VECTOR('',#438,10.);
#126=VECTOR('',#439,10.);
#127=VECTOR('',#440,10.);
#128=VECTOR('',#441,10.);
#129=VECTOR('',#448,10.);
#130=VECTOR('',#451,10.);
#131=VECTOR('',#452,10.);
#132=VECTOR('',#453,10.);
#133=VECTOR('',#464,15.);
#134=VECTOR('',#469,10.);
#135=VECTOR('',#470,10.);
#136=VECTOR('',#471,10.);
#137=VECTOR('',#472,10.);
#138=VECTOR('',#479,10.);
#139=VECTOR('',#482,10.);
#140=VECTOR('',#483,10.);
#141=VECTOR('',#484,10.);
#142=VECTOR('',#493,10.);
#143=VECTOR('',#494,10.);
#144=VECTOR('',#495,10.);
#145=VECTOR('',#496,10.);
#146=VECTOR('',#503,10.);
#147=VECTOR('',#506,10.);
#148=VECTOR('',#507,10.);
#149=VECTOR('',#508,10.);
#150=VECTOR('',#515,10.);
#151=VECTOR('',#518,10.);
#152=VECTOR('',#519,10.);
#153=VECTOR('',#520,10.);
#154=VECTOR('',#527,10.);
#155=VECTOR('',#530,10.);
#156=VECTOR('',#531,10.);
#157=VECTOR('',#532,10.);
#158=VERTEX_POINT('',#545);
#159=VERTEX_POINT('',#546);
#160=VERTEX_POINT('',#548);
#161=VERTEX_POINT('',#550);
#162=VERTEX_POINT('',#554);
#163=VERTEX_POINT('',#556);
#164=VERTEX_POINT('',#560);
#165=VERTEX_POINT('',#562);
#166=VERTEX_POINT('',#569);
#167=VERTEX_POINT('',#571);
#168=VERTEX_POINT('',#575);
#169=VERTEX_POINT('',#576);
#170=VERTEX_POINT('',#578);
#171=VERTEX_POINT('',#580);
#172=VERTEX_POINT('',#584);
#173=VERTEX_POINT('',#586);
#174=VERTEX_POINT('',#590);
#175=VERTEX_POINT('',#592);
#176=VERTEX_POINT('',#599);
#177=VERTEX_POINT('',#600);
#178=VERTEX_POINT('',#602);
#179=VERTEX_POINT('',#604);
#180=VERTEX_POINT('',#608);
#181=VERTEX_POINT('',#610);
#182=VERTEX_POINT('',#614);
#183=VERTEX_POINT('',#616);
#184=VERTEX_POINT('',#620);
#185=VERTEX_POINT('',#622);
#186=VERTEX_POINT('',#626);
#187=VERTEX_POINT('',#628);
#188=VERTEX_POINT('',#632);
#189=VERTEX_POINT('',#634);
#190=VERTEX_POINT('',#638);
#191=VERTEX_POINT('',#640);
#192=EDGE_CURVE('',#158,#159,#92,.T.);
#193=EDGE_CURVE('',#160,#158,#93,.T.);
#194=EDGE_CURVE('',#161,#160,#94,.T.);
#195=EDGE_CURVE('',#161,#159,#95,.T.);
#196=EDGE_CURVE('',#159,#162,#21,.T.);
#197=EDGE_CURVE('',#163,#161,#22,.T.);
#198=EDGE_CURVE('',#163,#162,#96,.T.);
#199=EDGE_CURVE('',#162,#164,#97,.T.);
#200=EDGE_CURVE('',#165,#163,#98,.T.);
#201=EDGE_CURVE('',#165,#164,#99,.T.);
#202=EDGE_CURVE('',#164,#158,#23,.T.);
#203=EDGE_CURVE('',#160,#165,#24,.T.);
#204=EDGE_CURVE('',#166,#166,#25,.T.);
#205=EDGE_CURVE('',#166,#167,#100,.T.);
#206=EDGE_CURVE('',#167,#167,#26,.T.);
#207=EDGE_CURVE('',#168,#169,#101,.T.);
#208=EDGE_CURVE('',#170,#168,#102,.T.);
#209=EDGE_CURVE('',#171,#170,#103,.T.);
#210=EDGE_CURVE('',#171,#169,#104,.T.);
#211=EDGE_CURVE('',#169,#172,#27,.T.);
#212=EDGE_CURVE('',#173,#171,#28,.T.);
#213=EDGE_CURVE('',#173,#172,#105,.T.);
#214=EDGE_CURVE('',#172,#174,#106,.T.);
#215=EDGE_CURVE('',#175,#173,#107,.T.);
#216=EDGE_CURVE('',#175,#174,#108,.T.);
#217=EDGE_CURVE('',#174,#168,#29,.T.);
#218=EDGE_CURVE('',#170,#175,#30,.T.);
#219=EDGE_CURVE('',#176,#177,#109,.T.);
#220=EDGE_CURVE('',#177,#178,#110,.T.);
#221=EDGE_CURVE('',#179,#178,#111,.T.);
#222=EDGE_CURVE('',#176,#179,#112,.T.);
#223=EDGE_CURVE('',#180,#176,#31,.T.);
#224=EDGE_CURVE('',#181,#179,#32,.T.);
#225=EDGE_CURVE('',#180,#181,#113,.T.);
#226=EDGE_CURVE('',#182,#180,#114,.T.);
#227=EDGE_CURVE('',#183,#181,#115,.T.);
#228=EDGE_CURVE('',#182,#183,#116,.T.);
#229=EDGE_CURVE('',#184,#182,#33,.T.);
#230=EDGE_CURVE('',#185,#183,#34,.T.);
#231=EDGE_CURVE('',#184,#185,#117,.T.);
#232=EDGE_CURVE('',#186,#184,#118,.T.);
#233=EDGE_CURVE('',#187,#185,#119,.T.);
#234=EDGE_CURVE('',#186,#187,#120,.T.);
#235=EDGE_CURVE('',#188,#186,#35,.T.);
#236=EDGE_CURVE('',#189,#187,#36,.T.);
#237=EDGE_CURVE('',#188,#189,#121,.T.);
#238=EDGE_CURVE('',#190,#188,#122,.T.);
#239=EDGE_CURVE('',#191,#189,#123,.T.);
#240=EDGE_CURVE('',#190,#191,#124,.T.);
#241=EDGE_CURVE('',#177,#190,#37,.T.);
#242=EDGE_CURVE('',#178,#191,#38,.T.);
#243=ORIENTED_EDGE('',*,*,#192,.F.);
#244=ORIENTED_EDGE('',*,*,#193,.F.);
#245=ORIENTED_EDGE('',*,*,#194,.F.);
#246=ORIENTED_EDGE('',*,*,#195,.T.);
#247=ORIENTED_EDGE('',*,*,#196,.F.);
#248=ORIENTED_EDGE('',*,*,#195,.F.);
#249=ORIENTED_EDGE('',*,*,#197,.F.);
#250=ORIENTED_EDGE('',*,*,#198,.T.);
#251=ORIENTED_EDGE('',*,*,#199,.F.);
#252=ORIENTED_EDGE('',*,*,#198,.F.);
#253=ORIENTED_EDGE('',*,*,#200,.F.);
#254=ORIENTED_EDGE('',*,*,#201,.T.);
#255=ORIENTED_EDGE('',*,*,#202,.F.);
#256=ORIENTED_EDGE('',*,*,#201,.F.);
#257=ORIENTED_EDGE('',*,*,#203,.F.);
#258=ORIENTED_EDGE('',*,*,#193,.T.);
#259=ORIENTED_EDGE('',*,*,#204,.F.);
#260=ORIENTED_EDGE('',*,*,#205,.T.);
#261=ORIENTED_EDGE('',*,*,#206,.F.);
#262=ORIENTED_EDGE('',*,*,#205,.F.);
#263=ORIENTED_EDGE('',*,*,#207,.F.);
#264=ORIENTED_EDGE('',*,*,#208,.F.);
#265=ORIENTED_EDGE('',*,*,#209,.F.);
#266=ORIENTED_EDGE('',*,*,#210,.T.);
#267=ORIENTED_EDGE('',*,*,#211,.F.);
#268=ORIENTED_EDGE('',*,*,#210,.F.);
#269=ORIENTED_EDGE('',*,*,#212,.F.);
#270=ORIENTED_EDGE('',*,*,#213,.T.);
#271=ORIENTED_EDGE('',*,*,#214,.F.);
#272=ORIENTED_EDGE('',*,*,#213,.F.);
#273=ORIENTED_EDGE('',*,*,#215,.F.);
#274=ORIENTED_EDGE('',*,*,#216,.T.);
#275=ORIENTED_EDGE('',*,*,#217,.F.);
#276=ORIENTED_EDGE('',*,*,#216,.F.);
#277=ORIENTED_EDGE('',*,*,#218,.F.);
#278=ORIENTED_EDGE('',*,*,#208,.T.);
#279=ORIENTED_EDGE('',*,*,#219,.T.);
#280=ORIENTED_EDGE('',*,*,#220,.T.);
#281=ORIENTED_EDGE('',*,*,#221,.F.);
#282=ORIENTED_EDGE('',*,*,#222,.F.);
#283=ORIENTED_EDGE('',*,*,#223,.T.);
#284=ORIENTED_EDGE('',*,*,#222,.T.);
#285=ORIENTED_EDGE('',*,*,#224,.F.);
#286=ORIENTED_EDGE('',*,*,#225,.F.);
#287=ORIENTED_EDGE('',*,*,#226,.T.);
#288=ORIENTED_EDGE('',*,*,#225,.T.);
#289=ORIENTED_EDGE('',*,*,#227,.F.);
#290=ORIENTED_EDGE('',*,*,#228,.F.);
#291=ORIENTED_EDGE('',*,*,#229,.T.);
#292=ORIENTED_EDGE('',*,*,#228,.T.);
#293=ORIENTED_EDGE('',*,*,#230,.F.);
#294=ORIENTED_EDGE('',*,*,#231,.F.);
#295=ORIENTED_EDGE('',*,*,#232,.T.);
#296=ORIENTED_EDGE('',*,*,#231,.T.);
#297=ORIENTED_EDGE('',*,*,#233,.F.);
#298=ORIENTED_EDGE('',*,*,#234,.F.);
#299=ORIENTED_EDGE('',*,*,#235,.T.);
#300=ORIENTED_EDGE('',*,*,#234,.T.);
#301=ORIENTED_EDGE('',*,*,#236,.F.);
#302=ORIENTED_EDGE('',*,*,#237,.F.);
#303=ORIENTED_EDGE('',*,*,#238,.T.);
#304=ORIENTED_EDGE('',*,*,#237,.T.);
#305=ORIENTED_EDGE('',*,*,#239,.F.);
#306=ORIENTED_EDGE('',*,*,#240,.F.);
#307=ORIENTED_EDGE('',*,*,#241,.T.);
#308=ORIENTED_EDGE('',*,*,#240,.T.);
#309=ORIENTED_EDGE('',*,*,#242,.F.);
#310=ORIENTED_EDGE('',*,*,#220,.F.);
#311=ORIENTED_EDGE('',*,*,#242,.T.);
#312=ORIENTED_EDGE('',*,*,#239,.T.);
#313=ORIENTED_EDGE('',*,*,#236,.T.);
#314=ORIENTED_EDGE('',*,*,#233,.T.);
#315=ORIENTED_EDGE('',*,*,#230,.T.);
#316=ORIENTED_EDGE('',*,*,#227,.T.);
#317=ORIENTED_EDGE('',*,*,#224,.T.);
#318=ORIENTED_EDGE('',*,*,#221,.T.);
#319=ORIENTED_EDGE('',*,*,#200,.T.);
#320=ORIENTED_EDGE('',*,*,#197,.T.);
#321=ORIENTED_EDGE('',*,*,#194,.T.);
#322=ORIENTED_EDGE('',*,*,#203,.T.);
#323=ORIENTED_EDGE('',*,*,#204,.T.);
#324=ORIENTED_EDGE('',*,*,#215,.T.);
#325=ORIENTED_EDGE('',*,*,#212,.T.);
#326=ORIENTED_EDGE('',*,*,#209,.T.);
#327=ORIENTED_EDGE('',*,*,#218,.T.);
#328=ORIENTED_EDGE('',*,*,#241,.F.);
#329=ORIENTED_EDGE('',*,*,#219,.F.);
#330=ORIENTED_EDGE('',*,*,#223,.F.);
#331=ORIENTED_EDGE('',*,*,#226,.F.);
#332=ORIENTED_EDGE('',*,*,#229,.F.);
#333=ORIENTED_EDGE('',*,*,#232,.F.);
#334=ORIENTED_EDGE('',*,*,#235,.F.);
#335=ORIENTED_EDGE('',*,*,#238,.F.);
#336=ORIENTED_EDGE('',*,*,#199,.T.);
#337=ORIENTED_EDGE('',*,*,#202,.T.);
#338=ORIENTED_EDGE('',*,*,#192,.T.);
#339=ORIENTED_EDGE('',*,*,#196,.T.);
#340=ORIENTED_EDGE('',*,*,#206,.T.);
#341=ORIENTED_EDGE('',*,*,#214,.T.);
#342=ORIENTED_EDGE('',*,*,#217,.T.);
#343=ORIENTED_EDGE('',*,*,#207,.T.);
#344=ORIENTED_EDGE('',*,*,#211,.T.);
#345=PLANE('',#397);
#346=PLANE('',#401);
#347=PLANE('',#408);
#348=PLANE('',#412);
#349=PLANE('',#416);
#350=PLANE('',#420);
#351=PLANE('',#424);
#352=PLANE('',#428);
#353=PLANE('',#432);
#354=PLANE('',#433);
#355=ADVANCED_FACE('',(#48),#345,.F.);
#356=ADVANCED_FACE('',(#49),#39,.F.);
#357=ADVANCED_FACE('',(#50),#346,.F.);
#358=ADVANCED_FACE('',(#51),#40,.F.);
#359=ADVANCED_FACE('',(#52),#41,.F.);
#360=ADVANCED_FACE('',(#53),#347,.F.);
#361=ADVANCED_FACE('',(#54),#42,.F.);
#362=ADVANCED_FACE('',(#55),#348,.F.);
#363=ADVANCED_FACE('',(#56),#43,.F.);
#364=ADVANCED_FACE('',(#57),#349,.T.);
#365=ADVANCED_FACE('',(#58),#44,.T.);
#366=ADVANCED_FACE('',(#59),#350,.T.);
#367=ADVANCED_FACE('',(#60),#45,.T.);
#368=ADVANCED_FACE('',(#61),#351,.T.);
#369=ADVANCED_FACE('',(#62),#46,.T.);
#370=ADVANCED_FACE('',(#63),#352,.T.);
#371=ADVANCED_FACE('',(#64),#47,.T.);
#372=ADVANCED_FACE('',(#65,#15,#16,#17),#353,.T.);
#373=ADVANCED_FACE('',(#66,#18,#19,#20),#354,.F.);
#374=CLOSED_SHELL('',(#355,#356,#357,#358,#359,#360,#361,#362,#363,#364,
#365,#366,#367,#368,#369,#370,#371,#372,#373));
#375=DERIVED_UNIT_ELEMENT(#378,1.);
#376=DERIVED_UNIT_ELEMENT(#653,-3.);
#377=DIMENSIONAL_EXPONENTS(0.,1.,0.,0.,0.,0.,0.);
#378=(
CONVERSION_BASED_UNIT('gram',#380)
MASS_UNIT()
NAMED_UNIT(#377)
);
#379=(
MASS_UNIT()
NAMED_UNIT(*)
SI_UNIT(.KILO.,.GRAM.)
);
#380=MASS_MEASURE_WITH_UNIT(MASS_MEASURE(0.001),#379);
#381=DERIVED_UNIT((#375,#376));
#382=MEASURE_REPRESENTATION_ITEM('density measure',
POSITIVE_RATIO_MEASURE(1.),#381);
#383=PROPERTY_DEFINITION_REPRESENTATION(#388,#385);
#384=PROPERTY_DEFINITION_REPRESENTATION(#389,#386);
#385=REPRESENTATION('material name',(#387),#650);
#386=REPRESENTATION('density',(#382),#650);
#387=DESCRIPTIVE_REPRESENTATION_ITEM('Generisch','Generisch');
#388=PROPERTY_DEFINITION('material property','material name',#660);
#389=PROPERTY_DEFINITION('material property','density of part',#660);
#390=DATE_TIME_ROLE('creation_date');
#391=APPLIED_DATE_AND_TIME_ASSIGNMENT(#392,#390,(#660));
#392=DATE_AND_TIME(#393,#394);
#393=CALENDAR_DATE(2024,9,12);
#394=LOCAL_TIME(0,0,0.,#395);
#395=COORDINATED_UNIVERSAL_TIME_OFFSET(0,0,.BEHIND.);
#396=AXIS2_PLACEMENT_3D('',#543,#434,#435);
#397=AXIS2_PLACEMENT_3D('',#544,#436,#437);
#398=AXIS2_PLACEMENT_3D('',#553,#442,#443);
#399=AXIS2_PLACEMENT_3D('',#555,#444,#445);
#400=AXIS2_PLACEMENT_3D('',#557,#446,#447);
#401=AXIS2_PLACEMENT_3D('',#559,#449,#450);
#402=AXIS2_PLACEMENT_3D('',#565,#454,#455);
#403=AXIS2_PLACEMENT_3D('',#566,#456,#457);
#404=AXIS2_PLACEMENT_3D('',#567,#458,#459);
#405=AXIS2_PLACEMENT_3D('',#568,#460,#461);
#406=AXIS2_PLACEMENT_3D('',#570,#462,#463);
#407=AXIS2_PLACEMENT_3D('',#573,#465,#466);
#408=AXIS2_PLACEMENT_3D('',#574,#467,#468);
#409=AXIS2_PLACEMENT_3D('',#583,#473,#474);
#410=AXIS2_PLACEMENT_3D('',#585,#475,#476);
#411=AXIS2_PLACEMENT_3D('',#587,#477,#478);
#412=AXIS2_PLACEMENT_3D('',#589,#480,#481);
#413=AXIS2_PLACEMENT_3D('',#595,#485,#486);
#414=AXIS2_PLACEMENT_3D('',#596,#487,#488);
#415=AXIS2_PLACEMENT_3D('',#597,#489,#490);
#416=AXIS2_PLACEMENT_3D('',#598,#491,#492);
#417=AXIS2_PLACEMENT_3D('',#607,#497,#498);
#418=AXIS2_PLACEMENT_3D('',#609,#499,#500);
#419=AXIS2_PLACEMENT_3D('',#611,#501,#502);
#420=AXIS2_PLACEMENT_3D('',#613,#504,#505);
#421=AXIS2_PLACEMENT_3D('',#619,#509,#510);
#422=AXIS2_PLACEMENT_3D('',#621,#511,#512);
#423=AXIS2_PLACEMENT_3D('',#623,#513,#514);
#424=AXIS2_PLACEMENT_3D('',#625,#516,#517);
#425=AXIS2_PLACEMENT_3D('',#631,#521,#522);
#426=AXIS2_PLACEMENT_3D('',#633,#523,#524);
#427=AXIS2_PLACEMENT_3D('',#635,#525,#526);
#428=AXIS2_PLACEMENT_3D('',#637,#528,#529);
#429=AXIS2_PLACEMENT_3D('',#643,#533,#534);
#430=AXIS2_PLACEMENT_3D('',#644,#535,#536);
#431=AXIS2_PLACEMENT_3D('',#645,#537,#538);
#432=AXIS2_PLACEMENT_3D('',#646,#539,#540);
#433=AXIS2_PLACEMENT_3D('',#647,#541,#542);
#434=DIRECTION('axis',(0.,0.,1.));
#435=DIRECTION('refdir',(1.,0.,0.));
#436=DIRECTION('center_axis',(-1.,0.,0.));
#437=DIRECTION('ref_axis',(0.,1.,0.));
#438=DIRECTION('',(0.,-1.,0.));
#439=DIRECTION('',(0.,0.,-1.));
#440=DIRECTION('',(0.,1.,0.));
#441=DIRECTION('',(0.,0.,-1.));
#442=DIRECTION('center_axis',(0.,0.,-1.));
#443=DIRECTION('ref_axis',(-1.,0.,0.));
#444=DIRECTION('center_axis',(0.,0.,1.));
#445=DIRECTION('ref_axis',(-1.,0.,0.));
#446=DIRECTION('center_axis',(0.,0.,-1.));
#447=DIRECTION('ref_axis',(-1.,0.,0.));
#448=DIRECTION('',(0.,0.,-1.));
#449=DIRECTION('center_axis',(1.,0.,0.));
#450=DIRECTION('ref_axis',(0.,-1.,0.));
#451=DIRECTION('',(0.,1.,0.));
#452=DIRECTION('',(0.,-1.,0.));
#453=DIRECTION('',(0.,0.,-1.));
#454=DIRECTION('center_axis',(0.,0.,-1.));
#455=DIRECTION('ref_axis',(1.,0.,0.));
#456=DIRECTION('center_axis',(0.,0.,1.));
#457=DIRECTION('ref_axis',(1.,0.,0.));
#458=DIRECTION('center_axis',(0.,0.,-1.));
#459=DIRECTION('ref_axis',(1.,0.,0.));
#460=DIRECTION('center_axis',(0.,0.,-1.));
#461=DIRECTION('ref_axis',(1.,0.,0.));
#462=DIRECTION('center_axis',(0.,0.,-1.));
#463=DIRECTION('ref_axis',(1.,0.,0.));
#464=DIRECTION('',(0.,0.,-1.));
#465=DIRECTION('center_axis',(0.,0.,1.));
#466=DIRECTION('ref_axis',(1.,0.,0.));
#467=DIRECTION('center_axis',(-1.,-7.105427357601E-16,0.));
#468=DIRECTION('ref_axis',(-7.105427357601E-16,1.,0.));
#469=DIRECTION('',(7.105427357601E-16,-1.,0.));
#470=DIRECTION('',(0.,0.,-1.));
#471=DIRECTION('',(-7.105427357601E-16,1.,0.));
#472=DIRECTION('',(0.,0.,-1.));
#473=DIRECTION('center_axis',(0.,0.,-1.));
#474=DIRECTION('ref_axis',(-1.,0.,0.));
#475=DIRECTION('center_axis',(0.,0.,1.));
#476=DIRECTION('ref_axis',(-1.,0.,0.));
#477=DIRECTION('center_axis',(0.,0.,-1.));
#478=DIRECTION('ref_axis',(-1.,0.,0.));
#479=DIRECTION('',(0.,0.,-1.));
#480=DIRECTION('center_axis',(1.,7.105427357601E-16,0.));
#481=DIRECTION('ref_axis',(7.105427357601E-16,-1.,0.));
#482=DIRECTION('',(-7.105427357601E-16,1.,0.));
#483=DIRECTION('',(7.105427357601E-16,-1.,0.));
#484=DIRECTION('',(0.,0.,-1.));
#485=DIRECTION('center_axis',(0.,0.,-1.));
#486=DIRECTION('ref_axis',(1.,3.5527136788005E-15,0.));
#487=DIRECTION('center_axis',(0.,0.,1.));
#488=DIRECTION('ref_axis',(1.,3.5527136788005E-15,0.));
#489=DIRECTION('center_axis',(0.,0.,-1.));
#490=DIRECTION('ref_axis',(1.,3.5527136788005E-15,0.));
#491=DIRECTION('center_axis',(9.10971254272329E-19,-1.,0.));
#492=DIRECTION('ref_axis',(1.,9.10971254272329E-19,0.));
#493=DIRECTION('',(1.,9.10971254272329E-19,0.));
#494=DIRECTION('',(0.,0.,1.));
#495=DIRECTION('',(1.,9.10971254272329E-19,0.));
#496=DIRECTION('',(0.,0.,1.));
#497=DIRECTION('center_axis',(0.,0.,1.));
#498=DIRECTION('ref_axis',(-1.,-2.77555756156289E-16,0.));
#499=DIRECTION('center_axis',(0.,0.,1.));
#500=DIRECTION('ref_axis',(-1.,-2.77555756156289E-16,0.));
#501=DIRECTION('center_axis',(0.,0.,1.));
#502=DIRECTION('ref_axis',(-1.,-2.77555756156289E-16,0.));
#503=DIRECTION('',(0.,0.,1.));
#504=DIRECTION('center_axis',(-1.,-2.96394441399925E-16,0.));
#505=DIRECTION('ref_axis',(2.96394441399925E-16,-1.,0.));
#506=DIRECTION('',(2.96394441399925E-16,-1.,0.));
#507=DIRECTION('',(2.96394441399925E-16,-1.,0.));
#508=DIRECTION('',(0.,0.,1.));
#509=DIRECTION('center_axis',(0.,0.,1.));
#510=DIRECTION('ref_axis',(-1.38777878078145E-16,1.,0.));
#511=DIRECTION('center_axis',(0.,0.,1.));
#512=DIRECTION('ref_axis',(-1.38777878078145E-16,1.,0.));
#513=DIRECTION('center_axis',(0.,0.,1.));
#514=DIRECTION('ref_axis',(-1.38777878078145E-16,1.,0.));
#515=DIRECTION('',(0.,0.,1.));
#516=DIRECTION('center_axis',(-2.29949105423981E-16,1.,0.));
#517=DIRECTION('ref_axis',(-1.,-2.29949105423981E-16,0.));
#518=DIRECTION('',(-1.,-2.29949105423981E-16,0.));
#519=DIRECTION('',(-1.,-2.29949105423981E-16,0.));
#520=DIRECTION('',(0.,0.,1.));
#521=DIRECTION('center_axis',(0.,0.,1.));
#522=DIRECTION('ref_axis',(1.,0.,0.));
#523=DIRECTION('center_axis',(0.,0.,1.));
#524=DIRECTION('ref_axis',(1.,0.,0.));
#525=DIRECTION('center_axis',(0.,0.,1.));
#526=DIRECTION('ref_axis',(1.,0.,0.));
#527=DIRECTION('',(0.,0.,1.));
#528=DIRECTION('center_axis',(1.,0.,0.));
#529=DIRECTION('ref_axis',(0.,1.,0.));
#530=DIRECTION('',(0.,1.,0.));
#531=DIRECTION('',(0.,1.,0.));
#532=DIRECTION('',(0.,0.,1.));
#533=DIRECTION('center_axis',(0.,0.,1.));
#534=DIRECTION('ref_axis',(0.,-1.,0.));
#535=DIRECTION('center_axis',(0.,0.,1.));
#536=DIRECTION('ref_axis',(0.,-1.,0.));
#537=DIRECTION('center_axis',(0.,0.,1.));
#538=DIRECTION('ref_axis',(0.,-1.,0.));
#539=DIRECTION('center_axis',(0.,0.,1.));
#540=DIRECTION('ref_axis',(1.,0.,0.));
#541=DIRECTION('center_axis',(0.,0.,1.));
#542=DIRECTION('ref_axis',(1.,0.,0.));
#543=CARTESIAN_POINT('',(0.,0.,0.));
#544=CARTESIAN_POINT('Origin',(333.,124.5,18.));
#545=CARTESIAN_POINT('',(333.,149.5,0.));
#546=CARTESIAN_POINT('',(333.,124.5,0.));
#547=CARTESIAN_POINT('',(333.,130.75,0.));
#548=CARTESIAN_POINT('',(333.,149.5,18.));
#549=CARTESIAN_POINT('',(333.,149.5,18.));
#550=CARTESIAN_POINT('',(333.,124.5,18.));
#551=CARTESIAN_POINT('',(333.,130.75,18.));
#552=CARTESIAN_POINT('',(333.,124.5,18.));
#553=CARTESIAN_POINT('Origin',(338.,124.5,18.));
#554=CARTESIAN_POINT('',(343.,124.5,0.));
#555=CARTESIAN_POINT('Origin',(338.,124.5,0.));
#556=CARTESIAN_POINT('',(343.,124.5,18.));
#557=CARTESIAN_POINT('Origin',(338.,124.5,18.));
#558=CARTESIAN_POINT('',(343.,124.5,18.));
#559=CARTESIAN_POINT('Origin',(343.,149.5,18.));
#560=CARTESIAN_POINT('',(343.,149.5,0.));
#561=CARTESIAN_POINT('',(343.,143.25,0.));
#562=CARTESIAN_POINT('',(343.,149.5,18.));
#563=CARTESIAN_POINT('',(343.,143.25,18.));
#564=CARTESIAN_POINT('',(343.,149.5,18.));
#565=CARTESIAN_POINT('Origin',(338.,149.5,18.));
#566=CARTESIAN_POINT('Origin',(338.,149.5,0.));
#567=CARTESIAN_POINT('Origin',(338.,149.5,18.));
#568=CARTESIAN_POINT('Origin',(186.5,137.,18.));
#569=CARTESIAN_POINT('',(171.5,137.,18.));
#570=CARTESIAN_POINT('Origin',(186.5,137.,18.));
#571=CARTESIAN_POINT('',(171.5,137.,0.));
#572=CARTESIAN_POINT('',(171.5,137.,18.));
#573=CARTESIAN_POINT('Origin',(186.5,137.,0.));
#574=CARTESIAN_POINT('Origin',(30.,124.5,18.));
#575=CARTESIAN_POINT('',(30.,149.5,0.));
#576=CARTESIAN_POINT('',(30.,124.5,0.));
#577=CARTESIAN_POINT('',(30.,130.75,0.));
#578=CARTESIAN_POINT('',(30.,149.5,18.));
#579=CARTESIAN_POINT('',(30.,149.5,18.));
#580=CARTESIAN_POINT('',(30.,124.5,18.));
#581=CARTESIAN_POINT('',(30.,130.75,18.));
#582=CARTESIAN_POINT('',(30.,124.5,18.));
#583=CARTESIAN_POINT('Origin',(35.,124.5,18.));
#584=CARTESIAN_POINT('',(40.,124.5,0.));
#585=CARTESIAN_POINT('Origin',(35.,124.5,0.));
#586=CARTESIAN_POINT('',(40.,124.5,18.));
#587=CARTESIAN_POINT('Origin',(35.,124.5,18.));
#588=CARTESIAN_POINT('',(40.,124.5,18.));
#589=CARTESIAN_POINT('Origin',(40.,149.5,18.));
#590=CARTESIAN_POINT('',(40.,149.5,0.));
#591=CARTESIAN_POINT('',(40.,143.25,0.));
#592=CARTESIAN_POINT('',(40.,149.5,18.));
#593=CARTESIAN_POINT('',(40.,143.25,18.));
#594=CARTESIAN_POINT('',(40.,149.5,18.));
#595=CARTESIAN_POINT('Origin',(35.,149.5,18.));
#596=CARTESIAN_POINT('Origin',(35.,149.5,0.));
#597=CARTESIAN_POINT('Origin',(35.,149.5,18.));
#598=CARTESIAN_POINT('Origin',(32.,-2.8149011757015E-16,0.));
#599=CARTESIAN_POINT('',(32.,-2.8149011757015E-16,0.));
#600=CARTESIAN_POINT('',(341.,0.,0.));
#601=CARTESIAN_POINT('',(32.,-2.8149011757015E-16,0.));
#602=CARTESIAN_POINT('',(341.,0.,18.));
#603=CARTESIAN_POINT('',(341.,0.,0.));
#604=CARTESIAN_POINT('',(32.,-2.8149011757015E-16,18.));
#605=CARTESIAN_POINT('',(32.,-2.8149011757015E-16,18.));
#606=CARTESIAN_POINT('',(32.,-2.8149011757015E-16,0.));
#607=CARTESIAN_POINT('Origin',(32.,32.,0.));
#608=CARTESIAN_POINT('',(-8.87784983558901E-15,32.,0.));
#609=CARTESIAN_POINT('Origin',(32.,32.,0.));
#610=CARTESIAN_POINT('',(0.,32.,18.));
#611=CARTESIAN_POINT('Origin',(32.,32.,18.));
#612=CARTESIAN_POINT('',(-8.87784983558901E-15,32.,0.));
#613=CARTESIAN_POINT('Origin',(-7.11206825295733E-14,242.,0.));
#614=CARTESIAN_POINT('',(-7.11206825295733E-14,242.,0.));
#615=CARTESIAN_POINT('',(-7.11206825295733E-14,242.,0.));
#616=CARTESIAN_POINT('',(-7.105427357601E-14,242.,18.));
#617=CARTESIAN_POINT('',(-7.11206825295733E-14,242.,18.));
#618=CARTESIAN_POINT('',(-7.11206825295733E-14,242.,0.));
#619=CARTESIAN_POINT('Origin',(31.9999999999999,242.,0.));
#620=CARTESIAN_POINT('',(31.9999999999999,274.,0.));
#621=CARTESIAN_POINT('Origin',(31.9999999999999,242.,0.));
#622=CARTESIAN_POINT('',(31.9999999999999,274.,18.));
#623=CARTESIAN_POINT('Origin',(31.9999999999999,242.,18.));
#624=CARTESIAN_POINT('',(31.9999999999999,274.,0.));
#625=CARTESIAN_POINT('Origin',(341.,274.,0.));
#626=CARTESIAN_POINT('',(341.,274.,0.));
#627=CARTESIAN_POINT('',(341.,274.,0.));
#628=CARTESIAN_POINT('',(341.,274.,18.));
#629=CARTESIAN_POINT('',(341.,274.,18.));
#630=CARTESIAN_POINT('',(341.,274.,0.));
#631=CARTESIAN_POINT('Origin',(341.,242.,0.));
#632=CARTESIAN_POINT('',(373.,242.,0.));
#633=CARTESIAN_POINT('Origin',(341.,242.,0.));
#634=CARTESIAN_POINT('',(373.,242.,18.));
#635=CARTESIAN_POINT('Origin',(341.,242.,18.));
#636=CARTESIAN_POINT('',(373.,242.,0.));
#637=CARTESIAN_POINT('Origin',(373.,32.,0.));
#638=CARTESIAN_POINT('',(373.,32.,0.));
#639=CARTESIAN_POINT('',(373.,32.,0.));
#640=CARTESIAN_POINT('',(373.,32.,18.));
#641=CARTESIAN_POINT('',(373.,32.,18.));
#642=CARTESIAN_POINT('',(373.,32.,0.));
#643=CARTESIAN_POINT('Origin',(341.,32.,0.));
#644=CARTESIAN_POINT('Origin',(341.,32.,0.));
#645=CARTESIAN_POINT('Origin',(341.,32.,18.));
#646=CARTESIAN_POINT('Origin',(186.5,137.,18.));
#647=CARTESIAN_POINT('Origin',(186.5,137.,0.));
#648=UNCERTAINTY_MEASURE_WITH_UNIT(LENGTH_MEASURE(0.01),#652,
'DISTANCE_ACCURACY_VALUE',
'Maximum model space distance between geometric entities at asserted c
onnectivities');
#649=UNCERTAINTY_MEASURE_WITH_UNIT(LENGTH_MEASURE(0.01),#652,
'DISTANCE_ACCURACY_VALUE',
'Maximum model space distance between geometric entities at asserted c
onnectivities');
#650=(
GEOMETRIC_REPRESENTATION_CONTEXT(3)
GLOBAL_UNCERTAINTY_ASSIGNED_CONTEXT((#648))
GLOBAL_UNIT_ASSIGNED_CONTEXT((#652,#654,#655))
REPRESENTATION_CONTEXT('','3D')
);
#651=(
GEOMETRIC_REPRESENTATION_CONTEXT(3)
GLOBAL_UNCERTAINTY_ASSIGNED_CONTEXT((#649))
GLOBAL_UNIT_ASSIGNED_CONTEXT((#652,#654,#655))
REPRESENTATION_CONTEXT('','3D')
);
#652=(
LENGTH_UNIT()
NAMED_UNIT(*)
SI_UNIT(.MILLI.,.METRE.)
);
#653=(
LENGTH_UNIT()
NAMED_UNIT(*)
SI_UNIT(.CENTI.,.METRE.)
);
#654=(
NAMED_UNIT(*)
PLANE_ANGLE_UNIT()
SI_UNIT($,.RADIAN.)
);
#655=(
NAMED_UNIT(*)
SI_UNIT($,.STERADIAN.)
SOLID_ANGLE_UNIT()
);
#656=SHAPE_DEFINITION_REPRESENTATION(#657,#658);
#657=PRODUCT_DEFINITION_SHAPE('',$,#660);
#658=SHAPE_REPRESENTATION('',(#396),#650);
#659=PRODUCT_DEFINITION_CONTEXT('part definition',#664,'design');
#660=PRODUCT_DEFINITION('250422_Abdeckplatte Druckknopf_Holz_Goba',
'250422_Abdeckplatte Druckknopf_Holz_Goba',#661,#659);
#661=PRODUCT_DEFINITION_FORMATION('',$,#666);
#662=PRODUCT_RELATED_PRODUCT_CATEGORY(
'250422_Abdeckplatte Druckknopf_Holz_Goba',
'250422_Abdeckplatte Druckknopf_Holz_Goba',(#666));
#663=APPLICATION_PROTOCOL_DEFINITION('international standard',
'automotive_design',2009,#664);
#664=APPLICATION_CONTEXT(
'Core Data for Automotive Mechanical Design Process');
#665=PRODUCT_CONTEXT('part definition',#664,'mechanical');
#666=PRODUCT('250422_Abdeckplatte Druckknopf_Holz_Goba',
'250422_Abdeckplatte Druckknopf_Holz_Goba',$,(#665));
#667=PRESENTATION_STYLE_ASSIGNMENT((#668));
#668=SURFACE_STYLE_USAGE(.BOTH.,#671);
#669=SURFACE_STYLE_RENDERING_WITH_PROPERTIES($,#675,(#670));
#670=SURFACE_STYLE_TRANSPARENT(0.);
#671=SURFACE_SIDE_STYLE('',(#672,#669));
#672=SURFACE_STYLE_FILL_AREA(#673);
#673=FILL_AREA_STYLE('',(#674));
#674=FILL_AREA_STYLE_COLOUR('',#675);
#675=COLOUR_RGB('',0.749019607843137,0.749019607843137,0.749019607843137);
ENDSEC;
END-ISO-10303-21;
